<svg width="164" height="41" viewBox="0 0 164 41" fill="none" xmlns="http://www.w3.org/2000/svg">
<g clip-path="url(#clip0_0_755)">
<path d="M153.994 0.00012207H137.835L135.813 2.33446L128.717 10.5235L126.774 12.7687H164L153.994 0.00012207ZM131.302 10.5269L138.398 2.33789H141.164L134.068 10.5269H131.302ZM139.419 10.5269H136.653L141.918 4.44599L143.745 2.33446H146.511L145.545 3.4485L144.458 4.70307L141.915 7.6407L139.419 10.5269ZM144.773 10.5269H142.007L148.095 3.49991L149.103 2.33789H151.869L144.773 10.5269ZM147.358 10.5269L148.095 9.67682L153.871 3.00974L159.763 10.5303H147.358V10.5269Z" fill="#EA6125"/>
<path d="M126.774 14.2976V27.5838C126.774 34.6348 132.512 40.3729 139.563 40.3729H144.523V14.2976H126.774ZM128.988 16.4057H142.309V25.0986H128.988V16.4057ZM142.309 38.1586H139.563C133.732 38.1586 128.988 33.4145 128.988 27.5804V27.3096H142.309V38.1586Z" fill="#EA6125"/>
<path d="M149.408 21.4549L163.763 32.417L162.42 34.1755L148.331 23.419V40.2907H146.117V14.2976H148.331V19.5182L158.893 14.2976H163.883L149.408 21.4549Z" fill="#EA6125"/>
<path d="M0 33.7466V22.2292C0.901513 22.0715 2.04297 21.9927 3.43123 21.9927C4.96346 21.9927 6.10835 22.3595 6.86247 23.0896C7.45891 23.6723 7.75713 24.4333 7.75713 25.3725C7.75713 25.9312 7.51718 26.442 7.03729 26.9047C6.55739 27.3675 6.03637 27.5971 5.47763 27.5971H5.42279V27.6143C6.23861 27.7 6.88304 28.0085 7.3595 28.5364C7.83254 29.0642 8.07248 29.7395 8.07248 30.5519C8.07248 31.7071 7.57888 32.5846 6.5951 33.181C5.74158 33.7158 4.60012 33.9831 3.16387 33.9831C1.90243 33.9831 0.850096 33.9043 0 33.7466ZM2.57428 24.1453V26.6271H3.83229C4.76808 26.6271 5.23769 26.2192 5.23769 25.4033C5.23769 24.4778 4.65839 24.0151 3.50322 24.0151C3.22557 24.0151 2.91364 24.0596 2.57428 24.1453ZM2.57428 28.6906V31.8133C2.85536 31.923 3.23585 31.9779 3.7226 31.9779H3.77744C4.86063 31.9779 5.40222 31.498 5.40222 30.5348C5.40222 29.3042 4.83664 28.6906 3.70546 28.6906H2.57428Z" fill="#383737"/>
<path d="M16.7037 33.7638H14.695L14.5133 32.996C14.4893 33.0097 14.4516 33.0371 14.4036 33.0885C13.6975 33.685 12.9365 33.9832 12.1207 33.9832C10.2834 33.9832 9.36475 33.0817 9.36475 31.2821C9.36475 30.3943 9.74181 29.7053 10.4959 29.2185C11.298 28.6941 12.4806 28.4336 14.0368 28.4336H14.2734V28.4164C14.2734 27.9297 14.1774 27.6006 13.982 27.4292C13.7866 27.2578 13.4164 27.1721 12.868 27.1721C12.0659 27.1721 11.3357 27.4292 10.6776 27.94C10.4342 27.5012 10.2148 27.0762 10.0195 26.6614C10.7736 26.1027 11.4043 25.729 11.9082 25.5371C12.4121 25.3485 13.0359 25.2526 13.7798 25.2526C15.7268 25.2526 16.7003 26.4831 16.7003 28.9409V33.7638H16.7037ZM14.1842 29.9315H14.0574C13.413 29.9315 12.8817 30.0481 12.4703 30.2777C12.0556 30.5074 11.8499 30.8056 11.8499 31.1724C11.8499 31.8648 12.1344 32.2144 12.7069 32.2144C13.0976 32.2144 13.4301 32.0979 13.7112 31.8682C13.9923 31.6386 14.15 31.3438 14.1842 30.9907V29.9315Z" fill="#383737"/>
<path d="M26.5415 25.4788L23.0897 34.9532C22.531 36.4855 21.722 37.2533 20.6628 37.2533C19.823 37.2533 18.9592 36.8831 18.0714 36.1392C18.3285 35.7142 18.5445 35.3234 18.7296 34.9704C19.1923 35.2754 19.6002 35.4263 19.9533 35.4263C20.4263 35.4263 20.8342 34.871 21.177 33.7638H20.704L17.8555 25.4753H20.3029C20.4366 25.8901 20.6491 26.5448 20.9405 27.4463L20.9782 27.5937C21.4649 29.054 21.818 30.1543 22.0374 30.8981L24.0804 25.4753H26.5415V25.4788Z" fill="#383737"/>
<path d="M32.6566 31.7208L33.4793 32.9788C32.5538 33.7089 31.5391 34.0757 30.4319 34.0757C28.958 34.0757 28.2244 33.2599 28.2244 31.6282V27.4669H27.0933V25.4787H28.245V24.0562C28.9614 23.6654 29.7978 23.2232 30.7473 22.7228V25.4787H33.0851V27.4669H30.7302V31.3917C30.7302 31.7311 30.7679 31.9573 30.8399 32.067C30.9118 32.1767 31.0524 32.2315 31.258 32.2315C31.5905 32.2315 32.0602 32.0601 32.6566 31.7208Z" fill="#383737"/>
<path d="M42.8065 22.2086H44.9248L49.1959 33.7638H46.5839C46.3782 33.1673 46.1349 32.3823 45.8538 31.4089H41.857C41.5759 32.2727 41.3222 33.0576 41.0891 33.7638H38.532L42.8065 22.2086ZM43.8828 25.6056C43.6154 26.3494 43.1904 27.5766 42.6042 29.2939H45.1237C44.5992 27.7719 44.1879 26.5414 43.8828 25.6056Z" fill="#383737"/>
<path d="M52.8807 21.9893V33.7638H50.3989V23.285C50.8857 23.0553 51.6089 22.6782 52.5722 22.1538L52.7538 22.0612L52.8807 21.9893Z" fill="#383737"/>
<path d="M63.3046 25.4788L59.3421 28.838C60.4356 30.5176 61.5188 32.1596 62.5917 33.7672H59.8186C58.9171 32.1116 58.2178 30.833 57.7207 29.9349V33.7672H55.239V23.2884L57.7207 21.9927V27.3606C58.2315 26.9699 58.9993 26.346 60.0208 25.4822H63.3046V25.4788Z" fill="#383737"/>
<path d="M66.7016 25.4788L66.9381 26.1541C67.0478 25.9244 67.274 25.7153 67.6134 25.5336C67.9527 25.3519 68.2955 25.2594 68.6349 25.2594C69.7661 25.2594 70.6059 25.8147 71.1543 26.9219C70.9487 27.0316 70.599 27.2132 70.1123 27.4703C69.6495 27.7274 69.3033 27.9159 69.0702 28.0359C68.6692 27.5629 68.2407 27.3229 67.7916 27.3229C67.4386 27.3229 67.1883 27.5115 67.0444 27.8885V33.7672H64.5969V25.4788H66.7016Z" fill="#383737"/>
<path d="M74.5136 26.2809C75.2198 25.5988 76.1007 25.2594 77.1599 25.2594C77.8763 25.2594 78.5139 25.4102 79.0658 25.7153C79.6211 26.0204 80.005 26.4283 80.2244 26.939C80.4677 26.4523 80.8825 26.0512 81.4652 25.7359C82.048 25.4205 82.6752 25.2628 83.3437 25.2628C85.2804 25.2628 86.247 26.442 86.247 28.8038V33.7706H83.7447V29.4927C83.7447 28.7009 83.6385 28.1456 83.4259 27.8234C83.2134 27.5012 82.8501 27.3401 82.3393 27.3401C81.5235 27.3401 80.8791 27.652 80.406 28.2724L80.3889 33.7672H77.9072V29.2048C77.9072 28.5124 77.7872 28.0291 77.5507 27.7548C77.3142 27.4806 76.896 27.3435 76.2995 27.3435C75.6311 27.3435 75.0998 27.5012 74.7124 27.8165V33.7672H72.2307V25.4788H74.3491L74.5136 26.2809Z" fill="#383737"/>
<path d="M96.3624 30.4251H90.7065C90.7442 30.9256 90.9568 31.3472 91.3441 31.6934C91.7349 32.0396 92.1771 32.2144 92.6775 32.2144C93.4694 32.2144 94.3092 31.9642 95.197 31.4672L95.8174 32.78C95.4266 33.1331 94.9159 33.421 94.2852 33.6472C93.651 33.8735 93.0443 33.9866 92.4582 33.9866C91.0356 33.9866 89.9284 33.5924 89.1366 32.8006C88.3688 32.0465 87.9849 31.001 87.9849 29.6607C87.9849 28.3204 88.4168 27.2818 89.2806 26.4283C90.0724 25.6502 91.0699 25.2594 92.2731 25.2594C93.5996 25.2594 94.6348 25.6913 95.3752 26.5551C96.0334 27.3092 96.3624 28.2964 96.3624 29.5133V30.4251ZM90.5591 28.5981H93.8807C93.819 27.5286 93.2705 26.9904 92.2388 26.9904C91.2413 26.9939 90.6791 27.5286 90.5591 28.5981Z" fill="#383737"/>
<path d="M106.002 30.4251H100.342C100.38 30.9256 100.593 31.3472 100.98 31.6934C101.371 32.0396 101.813 32.2144 102.313 32.2144C103.105 32.2144 103.945 31.9642 104.833 31.4672L105.453 32.78C105.062 33.1331 104.552 33.421 103.921 33.6472C103.287 33.8735 102.68 33.9866 102.094 33.9866C100.671 33.9866 99.5642 33.5924 98.7723 32.8006C98.0045 32.0465 97.6206 31.001 97.6206 29.6607C97.6206 28.3204 98.0525 27.2818 98.9163 26.4283C99.7081 25.6502 100.706 25.2594 101.909 25.2594C103.235 25.2594 104.271 25.6913 105.011 26.5551C105.669 27.3092 105.998 28.2964 105.998 29.5133V30.4251H106.002ZM100.198 28.5981H103.52C103.458 27.5286 102.91 26.9904 101.878 26.9904C100.88 26.9939 100.318 27.5286 100.198 28.5981Z" fill="#383737"/>
<path d="M113.231 25.897V23.3947L115.712 22.027V33.7638H113.724L113.358 32.8863C113.176 33.2016 112.867 33.4656 112.436 33.6712C112.004 33.8769 111.561 33.9832 111.112 33.9832C109.786 33.9832 108.781 33.5513 108.099 32.6875C107.541 31.9813 107.26 31.0695 107.26 29.9486C107.26 28.317 107.729 27.0761 108.665 26.226C109.357 25.5816 110.187 25.2594 111.147 25.2594C111.976 25.2594 112.672 25.4719 113.231 25.897ZM113.231 28.3993C113.145 27.9845 112.963 27.652 112.682 27.3949C112.401 27.1378 112.072 27.011 111.695 27.011C111.099 27.011 110.632 27.2407 110.3 27.7034C109.964 28.1662 109.8 28.8003 109.8 29.6024C109.8 31.3438 110.334 32.2144 111.407 32.2144C111.832 32.2144 112.233 32.0362 112.614 31.6763C112.991 31.3163 113.196 30.9119 113.234 30.4628V28.3993H113.231Z" fill="#383737"/>
<path d="M75.2711 14.0163H76.7588V16.5872H75.014C74.1571 16.5872 73.4475 16.3781 72.8854 15.9633C72.2992 16.3781 71.5828 16.5872 70.7361 16.5872H64.1822C63.1161 16.5872 62.2797 16.2273 61.6661 15.504C61.128 14.8801 60.8572 14.0712 60.8572 13.0805V11.3906L63.5206 9.97837V12.9331C63.5206 13.3376 63.596 13.6187 63.7502 13.7764C63.9045 13.9341 64.1753 14.0163 64.5661 14.0163H70.4962C70.8869 14.0163 71.1612 13.9375 71.312 13.7764C71.4662 13.6187 71.5417 13.3342 71.5417 12.9331V9.73842L74.2051 8.32616V12.9537C74.2051 13.3445 74.2839 13.6221 74.445 13.7798C74.6027 13.9341 74.8803 14.0163 75.2711 14.0163ZM65.9063 8.04851C65.4916 8.04851 65.1557 7.91825 64.9054 7.66117C64.6552 7.40408 64.5284 7.06816 64.5284 6.64996C64.5284 6.23177 64.6552 5.92327 64.9054 5.67647C65.1557 5.43309 65.4881 5.30969 65.9063 5.30969C66.3245 5.30969 66.633 5.43309 66.8798 5.67647C67.1232 5.91984 67.2466 6.24548 67.2466 6.64996C67.2466 7.07844 67.1232 7.41779 66.8798 7.66802C66.6365 7.92168 66.3108 8.04851 65.9063 8.04851ZM68.9742 8.04851C68.5595 8.04851 68.2235 7.91825 67.9733 7.66117C67.7231 7.40408 67.5962 7.06816 67.5962 6.64996C67.5962 6.23177 67.7231 5.92327 67.9733 5.67647C68.2235 5.43309 68.556 5.30969 68.9742 5.30969C69.3924 5.30969 69.7009 5.43309 69.9477 5.67647C70.1911 5.91984 70.3145 6.24548 70.3145 6.64996C70.3145 7.07844 70.1911 7.41779 69.9477 7.66802C69.7009 7.92168 69.3787 8.04851 68.9742 8.04851Z" fill="#383737"/>
<path d="M76.7588 16.5871V14.0162H79.861V16.5871H76.7588Z" fill="#383737"/>
<path d="M78.8875 16.5871V14.0162H81.9896V16.5871H78.8875Z" fill="#383737"/>
<path d="M81.0161 16.5871V14.0162H84.1183V16.5871H81.0161Z" fill="#383737"/>
<path d="M83.1482 16.5871V14.0162H86.2504V16.5871H83.1482Z" fill="#383737"/>
<path d="M85.2769 16.5871V14.0162H88.379V16.5871H85.2769Z" fill="#383737"/>
<path d="M87.4055 16.5871V14.0162H90.5077V16.5871H87.4055Z" fill="#383737"/>
<path d="M96.1258 14.0162H97.9083V16.5871H95.8688C95.0118 16.5871 94.3023 16.378 93.7401 15.9632C93.1539 16.378 92.4375 16.5871 91.5909 16.5871H89.5342V14.0162H91.3338C91.7245 14.0162 92.0022 13.9374 92.1599 13.7763C92.3175 13.6186 92.3998 13.3409 92.3998 12.9502V9.73831L95.0632 8.32605V12.9536C95.0632 13.3444 95.1386 13.622 95.2929 13.7797C95.4437 13.9339 95.7248 14.0162 96.1258 14.0162ZM91.1521 18.1639C91.5566 18.1639 91.8822 18.2907 92.1359 18.5409C92.3861 18.7911 92.5129 19.1202 92.5129 19.5247C92.5129 19.9292 92.3861 20.2754 92.1359 20.5256C91.8857 20.7758 91.5566 20.9027 91.1521 20.9027C90.7476 20.9027 90.4014 20.7758 90.1512 20.5188C89.901 20.2617 89.7741 19.9326 89.7741 19.5281C89.7741 19.1236 89.901 18.798 90.1512 18.5443C90.4014 18.2907 90.7339 18.1639 91.1521 18.1639ZM94.2166 18.1639C94.621 18.1639 94.9433 18.2873 95.1901 18.5306C95.4334 18.774 95.5568 19.1065 95.5568 19.5213C95.5568 19.936 95.4334 20.272 95.1901 20.5222C94.9467 20.7724 94.621 20.8992 94.2166 20.8992C93.8121 20.8992 93.4659 20.7724 93.2156 20.5153C92.9654 20.2582 92.8386 19.9292 92.8386 19.5247C92.8386 19.1202 92.9654 18.7946 93.2156 18.5409C93.4693 18.2907 93.8018 18.1639 94.2166 18.1639Z" fill="#383737"/>
<path d="M96.9348 16.5871V14.0162H100.037V16.5871H96.9348Z" fill="#383737"/>
<path d="M99.0635 16.5871V14.0162H102.166V16.5871H99.0635Z" fill="#383737"/>
<path d="M101.196 16.5871V14.0162H104.298V16.5871H101.196Z" fill="#383737"/>
<path d="M103.324 16.5871V14.0162H106.426V16.5871H103.324Z" fill="#383737"/>
<path d="M105.453 16.5871V14.0162H108.555V16.5871H105.453Z" fill="#383737"/>
<path d="M107.582 16.5871V14.0162H110.684V16.5871H107.582Z" fill="#383737"/>
<path d="M109.714 16.5871V14.0162H111.513C111.904 14.0162 112.182 13.9374 112.339 13.7763C112.497 13.6186 112.579 13.3409 112.579 12.9502V9.73831L115.243 8.32605V13.0633C115.243 14.2013 114.886 15.096 114.177 15.7438C113.553 16.306 112.751 16.5871 111.77 16.5871H109.714ZM113.128 20.9027C112.713 20.9027 112.377 20.7758 112.127 20.5256C111.877 20.2754 111.75 19.9395 111.75 19.5247C111.75 19.1099 111.877 18.7774 112.127 18.5341C112.377 18.2907 112.71 18.1673 113.128 18.1673C113.546 18.1673 113.854 18.2907 114.101 18.5341C114.345 18.7774 114.468 19.1099 114.468 19.5247C114.468 19.9395 114.345 20.2754 114.101 20.5256C113.854 20.7758 113.532 20.9027 113.128 20.9027Z" fill="#383737"/>
<path d="M0 16.5872L1.34027 14.0163H4.07566C4.56584 14.0163 4.80921 13.7421 4.80921 13.1902C4.80921 11.9802 4.20935 11.0375 3.00961 10.3623L4.31218 8.1239C6.19748 9.21394 7.2361 10.6948 7.43491 12.5663C7.5069 13.1525 7.63373 13.5433 7.81197 13.7318C7.99022 13.9203 8.33643 14.0163 8.8506 14.0163H10.3177V16.5872H8.72034C7.82568 16.5872 7.07499 16.3678 6.46142 15.9256C6.00895 16.3678 5.37823 16.5872 4.56927 16.5872H0Z" fill="#383737"/>
<path d="M15.9154 14.0163H17.6979V16.5872H15.6583C14.8014 16.5872 14.0918 16.3781 13.5296 15.9633C12.9435 16.3781 12.2271 16.5872 11.3804 16.5872H9.32373V14.0163H11.1233C11.5141 14.0163 11.7918 13.9375 11.9494 13.7764C12.1071 13.6187 12.1894 13.3411 12.1894 12.9503V9.73843L14.8528 8.32617V12.9537C14.8528 13.3445 14.9282 13.6221 15.0824 13.7798C15.2333 13.9341 15.5143 14.0163 15.9154 14.0163ZM10.9417 18.164C11.3461 18.164 11.6718 18.2908 11.9254 18.541C12.1757 18.7913 12.3025 19.1203 12.3025 19.5248C12.3025 19.9293 12.1757 20.2755 11.9254 20.5257C11.6752 20.776 11.3461 20.9028 10.9417 20.9028C10.5372 20.9028 10.191 20.776 9.94074 20.5189C9.69051 20.2618 9.56368 19.9327 9.56368 19.5282C9.56368 19.1238 9.69051 18.7981 9.94074 18.5445C10.191 18.2908 10.5269 18.164 10.9417 18.164ZM14.0061 18.164C14.4106 18.164 14.7328 18.2874 14.9796 18.5308C15.223 18.7741 15.3464 19.1066 15.3464 19.5214C15.3464 19.9362 15.223 20.2721 14.9796 20.5223C14.7362 20.7725 14.4106 20.8994 14.0061 20.8994C13.6016 20.8994 13.2554 20.7725 13.0052 20.5155C12.755 20.2584 12.6281 19.9293 12.6281 19.5248C12.6281 19.1203 12.755 18.7947 13.0052 18.541C13.2589 18.2908 13.5914 18.164 14.0061 18.164Z" fill="#383737"/>
<path d="M19.59 11.4626C19.59 10.3348 19.9397 9.4539 20.6355 8.81975C21.2491 8.26788 22.0443 7.99365 23.0213 7.99365C24.2587 7.99365 25.2185 8.44612 25.904 9.35106C26.4902 10.1223 26.785 11.1027 26.785 12.2887C26.785 13.6461 26.4114 14.7259 25.6641 15.5211C25.0162 16.2307 24.1764 16.5872 23.1481 16.5872C22.1814 16.5872 21.3965 16.4021 20.7966 16.0353C20.2447 16.4021 19.5729 16.5872 18.7776 16.5872H16.7209V14.0163H18.5205C18.9113 14.0163 19.189 13.9375 19.3466 13.7764C19.5043 13.6187 19.5866 13.341 19.5866 12.9503V11.4626H19.59ZM22.25 13.2999C22.25 13.7764 22.5071 14.0163 23.0213 14.0163C23.7788 14.0163 24.1593 13.4096 24.1593 12.1996C24.1593 11.0615 23.7788 10.4925 23.0213 10.4925C22.5071 10.4925 22.25 10.7942 22.25 11.3906V13.2999Z" fill="#383737"/>
<path d="M34.477 14.0163H36.2766V16.5872H34.2199C33.9388 16.5872 33.644 16.5563 33.3389 16.4946C33.0579 18.0988 32.2695 19.1992 30.9703 19.799C30.4562 20.0424 29.9009 20.1658 29.301 20.1658C28.492 20.1658 27.7036 19.9499 26.9324 19.5248V17.211C27.5699 17.5675 28.187 17.7424 28.7868 17.7424C29.0919 17.7424 29.373 17.6944 29.6301 17.595C30.3773 17.3379 30.7509 16.6523 30.7509 15.5383V9.73843L33.4144 8.32617V8.34331L33.4315 8.32617V13.2656C33.4932 13.7627 33.8428 14.0163 34.477 14.0163Z" fill="#383737"/>
<path d="M44.301 14.0163H46.9439V16.5872H42.7037C42.0798 16.5872 41.5519 16.5392 41.1235 16.4398C40.6813 16.5392 40.1568 16.5872 39.5432 16.5872H35.2825V14.0163H37.9459C37.5894 13.3445 37.4146 12.676 37.4146 12.0145C37.4146 10.777 37.7745 9.78641 38.4978 9.03914C39.1696 8.33987 40.0471 7.99366 41.1235 7.99366C42.3472 7.99366 43.3035 8.43928 43.9891 9.33394C44.5513 10.0572 44.8323 10.9484 44.8323 12.0145C44.8323 12.676 44.6541 13.341 44.301 14.0163ZM39.6015 6.98246C39.1867 6.98246 38.8508 6.85563 38.6006 6.59855C38.3504 6.34146 38.2235 6.00554 38.2235 5.58734C38.2235 5.16915 38.3504 4.86065 38.6006 4.61385C38.8508 4.37047 39.1833 4.24707 39.6015 4.24707C40.0197 4.24707 40.3282 4.37047 40.575 4.61385C40.8184 4.85722 40.9418 5.18286 40.9418 5.58734C40.9418 6.01582 40.8184 6.35517 40.575 6.6054C40.3282 6.85906 40.006 6.98246 39.6015 6.98246ZM41.1235 13.7592C41.4525 13.5878 41.7233 13.3205 41.9324 12.9606C42.1415 12.6006 42.2443 12.2304 42.2443 11.8499C42.2443 10.945 41.8707 10.4925 41.1235 10.4925C40.3762 10.4925 39.9854 10.9381 39.9854 11.8328C39.9854 12.2236 40.0883 12.6006 40.2974 12.9606C40.5064 13.3205 40.7807 13.5878 41.1235 13.7592ZM42.6488 6.98246C42.2341 6.98246 41.9016 6.85563 41.6582 6.59855C41.4148 6.34146 41.2914 6.00554 41.2914 5.58734C41.2914 5.16915 41.4148 4.86065 41.6582 4.61385C41.9016 4.37047 42.2341 4.24707 42.6488 4.24707C43.0636 4.24707 43.379 4.37047 43.6326 4.61385C43.8828 4.85722 44.0097 5.18286 44.0097 5.58734C44.0097 6.01582 43.8828 6.35517 43.6326 6.6054C43.379 6.85906 43.0533 6.98246 42.6488 6.98246Z" fill="#383737"/>
<path d="M45.9702 16.5872V14.0163H47.1631C47.6773 14.0163 48.0338 13.9101 48.236 13.6941C48.4382 13.4816 48.5376 13.1046 48.5376 12.5664V6.15981L51.201 4.74756V12.587C51.201 13.8347 50.8206 14.8253 50.063 15.5623C49.3637 16.2479 48.4417 16.5906 47.2899 16.5906H45.9702V16.5872Z" fill="#383737"/>
<path d="M54.509 16.5872V6.15981L57.1724 4.74756V16.5906H54.509V16.5872Z" fill="#383737"/>
</g>
<defs>
<clipPath id="clip0_0_755">
<rect width="164" height="40.3727" fill="white"/>
</clipPath>
</defs>
</svg>
