<svg width="1000" height="1000" viewBox="0 0 1000 1000" fill="none" xmlns="http://www.w3.org/2000/svg">
<path d="M50.427 456.666L65.7822 431.074H170.161C170.283 427.783 169.247 425.163 167.053 423.213C164.982 421.142 160.533 420.106 153.709 420.106H70.535L99.0518 372.578L100.88 373.857L91.3742 394.514H153.709C161.752 394.514 168.333 395.55 173.451 397.621C178.691 399.693 182.835 402.496 185.882 406.03C188.928 409.442 191.122 413.342 192.462 417.729C193.925 421.995 194.839 426.443 195.204 431.074H217.689V456.666H50.427ZM227.728 447.526V381.901L253.32 376.234V447.526H227.728ZM210.362 456.666V431.074H260.632V456.666H210.362ZM243.266 456.666V431.074H355.688C355.81 427.783 354.774 425.163 352.581 423.213C350.509 421.142 346.061 420.106 339.236 420.106H243.266V394.514H339.236C348.254 394.514 355.505 395.793 360.989 398.353C366.473 400.912 370.617 404.324 373.42 408.589C376.345 412.855 378.355 417.547 379.452 422.665C380.549 427.783 381.097 432.963 381.097 438.203C381.219 443.321 381.28 448.074 381.28 452.461C381.28 453.924 380.671 454.96 379.452 455.569C378.234 456.178 377.015 456.544 375.796 456.666C374.578 456.666 373.968 456.666 373.968 456.666H243.266ZM417.736 456.666V431.074H444.425V456.666H417.736ZM370.391 484.086C375.753 485.548 380.201 486.096 383.735 485.731C387.147 485.365 389.828 484.329 391.778 482.623C393.728 480.917 395.069 478.724 395.8 476.043C396.531 473.483 396.897 470.68 396.897 467.634V400.181L422.489 394.514V467.634C422.489 474.093 421.087 479.333 418.284 483.354C415.603 487.498 412.069 490.484 407.682 492.312C403.295 494.262 398.664 495.176 393.789 495.054C389.036 494.932 384.588 493.896 380.445 491.946C376.179 490.118 372.828 487.498 370.391 484.086ZM437.077 456.666V431.074H451.701V316.093L477.293 310.426V452.461C477.293 453.924 476.684 454.96 475.465 455.569C474.246 456.178 473.028 456.544 471.809 456.666C470.59 456.666 469.981 456.666 469.981 456.666H437.077ZM529.319 446.063C528.588 448.744 526.638 451.121 523.47 453.193C520.423 455.142 516.767 456.483 512.502 457.214C508.358 457.945 504.276 457.823 500.254 456.849C496.354 455.995 493.064 454.107 490.383 451.182C487.702 448.135 486.361 443.87 486.361 438.386V316.093L511.953 310.426V438.386C511.953 441.432 512.624 443.687 513.964 445.149C515.305 446.49 516.95 447.343 518.9 447.709C520.85 447.952 522.8 447.891 524.749 447.526C526.699 447.038 528.223 446.551 529.319 446.063ZM572.012 354.192C569.087 354.192 566.589 353.156 564.517 351.085C562.445 349.013 561.409 346.515 561.409 343.59C561.409 340.665 562.445 338.167 564.517 336.095C566.589 334.023 569.087 332.987 572.012 332.987C574.936 332.987 577.435 334.023 579.506 336.095C581.578 338.167 582.614 340.665 582.614 343.59C582.614 346.515 581.578 349.013 579.506 351.085C577.435 353.156 574.936 354.192 572.012 354.192ZM572.012 385.268C569.087 385.268 566.589 384.232 564.517 382.161C562.445 380.089 561.409 377.591 561.409 374.666C561.409 371.741 562.445 369.243 564.517 367.171C566.589 365.099 569.087 364.063 572.012 364.063C574.936 364.063 577.435 365.099 579.506 367.171C581.578 369.243 582.614 371.741 582.614 374.666C582.614 377.591 581.578 380.089 579.506 382.161C577.435 384.232 574.936 385.268 572.012 385.268ZM584.643 456.666L596.525 431.074H632.537V456.666H584.643ZM611.698 456.666V420.106H619.741V456.666H611.698ZM594.149 389.944V372.029L619.741 361.61V378.793C618.766 380.743 616.877 382.571 614.074 384.277C611.271 385.983 608.103 387.385 604.569 388.481C601.034 389.456 597.561 389.944 594.149 389.944ZM594.149 366.545V316.093L619.741 310.426V356.126L594.149 366.545ZM619.741 425.59L588.848 394.514C590.432 394.514 592.687 394.453 595.611 394.331C598.536 394.087 601.583 393.661 604.751 393.051C608.042 392.32 611.027 391.284 613.709 389.944C616.511 388.481 618.522 386.593 619.741 384.277V425.59ZM588.848 456.666C583.242 456.666 578.063 455.264 573.31 452.461C568.557 449.658 564.718 445.881 561.793 441.128C558.99 436.375 557.589 431.196 557.589 425.59C557.589 419.862 558.99 414.683 561.793 410.052C564.718 405.299 568.557 401.521 573.31 398.718C578.063 395.915 583.242 394.514 588.848 394.514C594.576 394.514 599.755 395.915 604.386 398.718C609.017 401.521 612.734 405.299 615.537 410.052C618.339 414.683 619.741 419.862 619.741 425.59C619.741 431.318 618.339 436.558 615.537 441.311C612.734 445.941 609.017 449.658 604.386 452.461C599.755 455.264 594.576 456.666 588.848 456.666ZM588.848 431.074C590.432 431.074 591.712 430.586 592.687 429.611C593.662 428.515 594.149 427.174 594.149 425.59C594.149 424.006 593.662 422.726 592.687 421.751C591.712 420.654 590.432 420.106 588.848 420.106C587.264 420.106 585.923 420.654 584.826 421.751C583.729 422.726 583.181 424.006 583.181 425.59C583.181 427.174 583.729 428.515 584.826 429.611C585.923 430.586 587.264 431.074 588.848 431.074ZM625.232 456.666V431.074H639.856V316.093L665.448 310.426V452.461C665.448 453.924 664.839 454.96 663.62 455.569C662.401 456.178 661.183 456.544 659.964 456.666C658.745 456.666 658.136 456.666 658.136 456.666H625.232ZM681.829 456.666C681.829 456.666 681.219 456.666 680.001 456.666C678.782 456.544 677.563 456.178 676.345 455.569C675.126 454.96 674.517 453.924 674.517 452.461V316.093L700.109 310.426V431.074H714.733V456.666H681.829ZM707.349 456.666V431.074H852.675C852.797 427.783 851.761 425.163 849.567 423.213C847.496 421.142 843.047 420.106 836.223 420.106H740.253V394.514H836.223C845.241 394.514 852.492 395.793 857.976 398.353C863.46 400.912 867.604 404.324 870.406 408.589C873.331 412.855 875.342 417.547 876.439 422.665C877.536 427.783 878.084 432.963 878.084 438.203C878.206 443.321 878.267 448.074 878.267 452.461C878.267 453.924 877.658 454.96 876.439 455.569C875.22 456.178 874.002 456.544 872.783 456.666C871.564 456.666 870.955 456.666 870.955 456.666H707.349ZM732.027 420.106V316.093L757.619 310.426V420.106H732.027ZM893.883 480.795C900.83 482.623 906.314 483.111 910.335 482.258C914.479 481.526 917.525 480.064 919.475 477.871C921.425 475.677 922.644 473.422 923.131 471.107C923.741 468.913 924.045 467.268 924.045 466.171V433.267L949.637 425.59V460.687C949.637 467.877 948.114 473.727 945.067 478.236C942.021 482.867 938.121 486.218 933.368 488.29C928.737 490.484 923.802 491.58 918.561 491.58C913.443 491.58 908.629 490.606 904.12 488.656C899.733 486.828 896.321 484.208 893.883 480.795ZM949.637 425.59L918.744 394.514C920.328 394.514 922.583 394.453 925.508 394.331C928.432 394.087 931.479 393.661 934.648 393.051C937.938 392.32 940.924 391.284 943.605 389.944C946.408 388.481 948.419 386.593 949.637 384.277V425.59ZM918.744 456.666C913.138 456.666 907.959 455.264 903.206 452.461C898.453 449.658 894.615 445.881 891.69 441.128C888.887 436.375 887.485 431.196 887.485 425.59C887.485 419.862 888.887 414.683 891.69 410.052C894.615 405.299 898.453 401.521 903.206 398.718C907.959 395.915 913.138 394.514 918.744 394.514C924.472 394.514 929.651 395.915 934.282 398.718C938.913 401.521 942.63 405.299 945.433 410.052C948.236 414.683 949.637 419.862 949.637 425.59C949.637 431.318 948.236 436.558 945.433 441.311C942.63 445.941 938.913 449.658 934.282 452.461C929.651 455.264 924.472 456.666 918.744 456.666ZM918.744 431.074C920.328 431.074 921.608 430.586 922.583 429.611C923.558 428.515 924.045 427.174 924.045 425.59C924.045 424.006 923.558 422.726 922.583 421.751C921.608 420.654 920.328 420.106 918.744 420.106C917.16 420.106 915.819 420.654 914.722 421.751C913.626 422.726 913.077 424.006 913.077 425.59C913.077 427.174 913.626 428.515 914.722 429.611C915.819 430.586 917.16 431.074 918.744 431.074ZM19.0605 569.192C16.1357 569.192 13.6374 568.156 11.5657 566.085C9.49396 564.013 8.45809 561.515 8.45809 558.59C8.45809 555.665 9.49396 553.167 11.5657 551.095C13.6374 549.023 16.1357 547.987 19.0605 547.987C21.9853 547.987 24.4835 549.023 26.5553 551.095C28.627 553.167 29.6629 555.665 29.6629 558.59C29.6629 561.515 28.627 564.013 26.5553 566.085C24.4835 568.156 21.9853 569.192 19.0605 569.192ZM19.0605 600.268C16.1357 600.268 13.6374 599.232 11.5657 597.161C9.49396 595.089 8.45809 592.591 8.45809 589.666C8.45809 586.741 9.49396 584.243 11.5657 582.171C13.6374 580.099 16.1357 579.063 19.0605 579.063C21.9853 579.063 24.4835 580.099 26.5553 582.171C28.627 584.243 29.6629 586.741 29.6629 589.666C29.6629 592.591 28.627 595.089 26.5553 597.161C24.4835 599.232 21.9853 600.268 19.0605 600.268ZM31.6922 671.666L43.5742 646.074H79.5857V671.666H31.6922ZM58.7466 671.666V635.106H66.7898V671.666H58.7466ZM41.1978 604.944V587.029L66.7898 576.61V593.793C65.8148 595.743 63.9259 597.571 61.123 599.277C58.32 600.983 55.1515 602.385 51.6174 603.481C48.0833 604.456 44.6101 604.944 41.1978 604.944ZM41.1978 581.545V531.093L66.7898 525.426V571.126L41.1978 581.545ZM66.7898 640.59L35.8966 609.514C37.4809 609.514 39.7354 609.453 42.6602 609.331C45.585 609.087 48.6317 608.661 51.8002 608.051C55.0906 607.32 58.0763 606.284 60.7574 604.944C63.5603 603.481 65.5711 601.593 66.7898 599.277V640.59ZM35.8966 671.666C30.2908 671.666 25.1114 670.264 20.3586 667.461C15.6058 664.658 11.7671 660.881 8.84226 656.128C6.03933 651.375 4.63786 646.196 4.63786 640.59C4.63786 634.862 6.03933 629.683 8.84226 625.052C11.7671 620.299 15.6058 616.521 20.3586 613.718C25.1114 610.915 30.2908 609.514 35.8966 609.514C41.6243 609.514 46.8037 610.915 51.4346 613.718C56.0655 616.521 59.7824 620.299 62.5854 625.052C65.3883 629.683 66.7898 634.862 66.7898 640.59C66.7898 646.318 65.3883 651.558 62.5854 656.311C59.7824 660.941 56.0655 664.658 51.4346 667.461C46.8037 670.264 41.6243 671.666 35.8966 671.666ZM35.8966 646.074C37.4809 646.074 38.7605 645.586 39.7354 644.611C40.7103 643.515 41.1978 642.174 41.1978 640.59C41.1978 639.006 40.7103 637.726 39.7354 636.751C38.7605 635.654 37.4809 635.106 35.8966 635.106C34.3123 635.106 32.9718 635.654 31.875 636.751C30.7782 637.726 30.2298 639.006 30.2298 640.59C30.2298 642.174 30.7782 643.515 31.875 644.611C32.9718 645.586 34.3123 646.074 35.8966 646.074ZM106.917 710.268C103.992 710.268 101.494 709.232 99.4224 707.161C97.3506 705.089 96.3148 702.591 96.3148 699.666C96.3148 696.741 97.3506 694.243 99.4224 692.171C101.494 690.099 103.992 689.063 106.917 689.063C109.842 689.063 112.34 690.099 114.412 692.171C116.484 694.243 117.52 696.741 117.52 699.666C117.52 702.591 116.484 705.089 114.412 707.161C112.34 709.232 109.842 710.268 106.917 710.268ZM75.2928 710.268C72.368 710.268 69.8697 709.232 67.798 707.161C65.7263 705.089 64.6904 702.591 64.6904 699.666C64.6904 696.741 65.7263 694.243 67.798 692.171C69.8697 690.099 72.368 689.063 75.2928 689.063C78.2176 689.063 80.7159 690.099 82.7876 692.171C84.8593 694.243 85.8952 696.741 85.8952 699.666C85.8952 702.591 84.8593 705.089 82.7876 707.161C80.7159 709.232 78.2176 710.268 75.2928 710.268ZM72.2809 671.666V646.074H86.9049V615.181L112.497 609.514V667.461C112.497 668.924 111.887 669.96 110.669 670.569C109.45 671.178 108.231 671.544 107.013 671.666C105.794 671.666 105.185 671.666 105.185 671.666H72.2809ZM119.666 699.086C125.028 700.548 129.476 701.096 133.01 700.731C136.423 700.365 139.104 699.329 141.054 697.623C143.003 695.917 144.344 693.724 145.075 691.043C145.806 688.483 146.172 685.68 146.172 682.634V615.181L171.764 609.514V682.634C171.764 689.093 170.362 694.333 167.56 698.354C164.878 702.498 161.344 705.484 156.957 707.312C152.57 709.262 147.939 710.176 143.064 710.054C138.312 709.932 133.863 708.896 129.72 706.946C125.455 705.118 122.103 702.498 119.666 699.086ZM188.144 671.666C188.144 671.666 187.535 671.666 186.316 671.666C185.098 671.544 183.879 671.178 182.66 670.569C181.442 669.96 180.832 668.924 180.832 667.461V531.093L206.424 525.426V646.074H221.048V671.666H188.144ZM232.565 710.268C229.64 710.268 227.142 709.232 225.07 707.161C222.998 705.089 221.962 702.591 221.962 699.666C221.962 696.741 222.998 694.243 225.07 692.171C227.142 690.099 229.64 689.063 232.565 689.063C235.49 689.063 237.988 690.099 240.06 692.171C242.131 694.243 243.167 696.741 243.167 699.666C243.167 702.591 242.131 705.089 240.06 707.161C237.988 709.232 235.49 710.268 232.565 710.268ZM235.601 671.666V646.074H275.817V671.666H235.601ZM213.665 671.666V646.074H228.289V615.181L253.881 609.514V667.461C253.881 668.924 253.272 669.96 252.053 670.569C250.834 671.178 249.616 671.544 248.397 671.666C247.178 671.666 246.569 671.666 246.569 671.666H213.665ZM303.257 600.268C300.332 600.268 297.834 599.232 295.762 597.161C293.69 595.089 292.654 592.591 292.654 589.666C292.654 586.741 293.69 584.243 295.762 582.171C297.834 580.099 300.332 579.063 303.257 579.063C306.182 579.063 308.68 580.099 310.752 582.171C312.823 584.243 313.859 586.741 313.859 589.666C313.859 592.591 312.823 595.089 310.752 597.161C308.68 599.232 306.182 600.268 303.257 600.268ZM268.469 671.666V646.074H295.524C293.939 644.49 292.355 642.601 290.771 640.407C289.308 638.092 287.724 635.471 286.018 632.547L298.083 609.148C302.592 615.973 307.588 622.188 313.072 627.794C318.556 633.4 323.918 637.848 329.159 641.138C334.399 644.429 338.908 646.074 342.686 646.074H392.773L381.805 671.666H268.469ZM427.426 657.042L401.834 644.246V531.093L427.426 525.426V657.042ZM433.093 675.322C427.487 675.322 422.308 673.92 417.555 671.117C412.802 668.314 408.964 664.537 406.039 659.784C403.236 655.031 401.834 649.852 401.834 644.246H427.426C427.426 645.83 427.975 647.171 429.072 648.267C430.168 649.242 431.509 649.73 433.093 649.73C434.677 649.73 435.957 649.242 436.932 648.267C437.907 647.171 438.394 645.83 438.394 644.246H463.986C463.986 649.974 462.585 655.214 459.782 659.967C456.979 664.597 453.262 668.314 448.631 671.117C444 673.92 438.821 675.322 433.093 675.322ZM438.394 653.386V525.426L463.986 531.093V644.246L438.394 653.386ZM433.093 711.882C427.487 711.882 422.308 710.48 417.555 707.677C412.802 704.874 408.964 701.096 406.039 696.344C403.236 691.591 401.834 686.412 401.834 680.806C401.834 675.078 403.236 669.899 406.039 665.268C408.964 660.515 412.802 656.737 417.555 653.934C422.308 651.131 427.487 649.73 433.093 649.73C438.821 649.73 444 651.131 448.631 653.934C453.262 656.737 456.979 660.515 459.782 665.268C462.585 669.899 463.986 675.078 463.986 680.806C463.986 686.533 462.585 691.713 459.782 696.344C456.979 701.096 453.262 704.874 448.631 707.677C444 710.48 438.821 711.882 433.093 711.882ZM433.093 686.29C434.677 686.29 435.957 685.741 436.932 684.645C437.907 683.67 438.394 682.39 438.394 680.806C438.394 679.221 437.907 677.881 436.932 676.784C435.957 675.809 434.677 675.322 433.093 675.322C431.509 675.322 430.168 675.809 429.072 676.784C427.975 677.881 427.426 679.221 427.426 680.806C427.426 682.39 427.975 683.67 429.072 684.645C430.168 685.741 431.509 686.29 433.093 686.29ZM516.02 661.063C515.289 663.744 513.339 666.121 510.17 668.193C507.124 670.142 503.468 671.483 499.202 672.214C495.059 672.945 490.976 672.823 486.955 671.849C483.055 670.995 479.765 669.107 477.084 666.182C474.403 663.135 473.062 658.87 473.062 653.386V531.093L498.654 525.426V653.386C498.654 656.432 499.324 658.687 500.665 660.149C502.005 661.49 503.651 662.343 505.6 662.709C507.55 662.952 509.5 662.891 511.45 662.526C513.4 662.038 514.923 661.551 516.02 661.063ZM599.262 737.268C596.338 737.268 593.839 736.232 591.768 734.161C589.696 732.089 588.66 729.591 588.66 726.666C588.66 723.741 589.696 721.243 591.768 719.171C593.839 717.099 596.338 716.063 599.262 716.063C602.187 716.063 604.685 717.099 606.757 719.171C608.829 721.243 609.865 723.741 609.865 726.666C609.865 729.591 608.829 732.089 606.757 734.161C604.685 736.232 602.187 737.268 599.262 737.268ZM567.638 737.268C564.713 737.268 562.215 736.232 560.143 734.161C558.072 732.089 557.036 729.591 557.036 726.666C557.036 723.741 558.072 721.243 560.143 719.171C562.215 717.099 564.713 716.063 567.638 716.063C570.563 716.063 573.061 717.099 575.133 719.171C577.205 721.243 578.24 723.741 578.24 726.666C578.24 729.591 577.205 732.089 575.133 734.161C573.061 736.232 570.563 737.268 567.638 737.268ZM611.56 708.226L569.333 634.557C564.459 625.905 562.082 618.288 562.204 611.707C562.448 605.127 564.337 599.399 567.871 594.524C571.405 589.528 575.609 585.201 580.484 581.545C584.262 578.743 587.187 576.244 589.258 574.051C591.33 571.857 592.366 568.384 592.366 563.631L654.335 671.666H625.818L589.807 609.514C589.076 610.854 588.71 612.743 588.71 615.181C588.832 617.496 589.502 619.751 590.721 621.944L639.894 708.226H611.56ZM637.335 671.666V646.074H667.679V671.666H637.335ZM544.29 708.226L564.032 675.322C565.251 677.759 567.079 679.587 569.516 680.806C571.953 682.024 574.269 682.634 576.462 682.634H605.162L616.13 708.226H544.29ZM721.902 573.268C718.978 573.268 716.479 572.232 714.408 570.161C712.336 568.089 711.3 565.591 711.3 562.666C711.3 559.741 712.336 557.243 714.408 555.171C716.479 553.099 718.978 552.063 721.902 552.063C724.827 552.063 727.325 553.099 729.397 555.171C731.469 557.243 732.505 559.741 732.505 562.666C732.505 565.591 731.469 568.089 729.397 570.161C727.325 572.232 724.827 573.268 721.902 573.268ZM690.278 573.268C687.353 573.268 684.855 572.232 682.783 570.161C680.712 568.089 679.676 565.591 679.676 562.666C679.676 559.741 680.712 557.243 682.783 555.171C684.855 553.099 687.353 552.063 690.278 552.063C693.203 552.063 695.701 553.099 697.773 555.171C699.845 557.243 700.88 559.741 700.88 562.666C700.88 565.591 699.845 568.089 697.773 570.161C695.701 572.232 693.203 573.268 690.278 573.268ZM660.31 671.666V646.074H711.494V622.675L737.086 609.514V667.461C737.086 668.924 736.477 669.96 735.258 670.569C734.04 671.178 732.821 671.544 731.602 671.666C730.384 671.666 729.774 671.666 729.774 671.666H660.31ZM706.193 640.59C700.587 640.59 695.408 639.188 690.655 636.385C685.902 633.582 682.063 629.805 679.139 625.052C676.336 620.299 674.934 615.12 674.934 609.514C674.934 603.786 676.336 598.607 679.139 593.976C682.063 589.223 685.902 585.445 690.655 582.642C695.408 579.839 700.587 578.438 706.193 578.438C711.921 578.438 717.1 579.839 721.731 582.642C726.362 585.445 730.079 589.223 732.882 593.976C735.685 598.607 737.086 603.786 737.086 609.514C737.086 615.242 735.685 620.482 732.882 625.235C730.079 629.866 726.362 633.582 721.731 636.385C717.1 639.188 711.921 640.59 706.193 640.59ZM706.193 614.998C707.777 614.998 709.057 614.51 710.032 613.535C711.007 612.439 711.494 611.098 711.494 609.514C711.494 607.93 711.007 606.65 710.032 605.675C709.057 604.578 707.777 604.03 706.193 604.03C704.609 604.03 703.268 604.578 702.171 605.675C701.075 606.65 700.526 607.93 700.526 609.514C700.526 611.098 701.075 612.439 702.171 613.535C703.268 614.51 704.609 614.998 706.193 614.998ZM789.148 661.063C788.417 663.744 786.467 666.121 783.299 668.193C780.252 670.142 776.596 671.483 772.331 672.214C768.187 672.945 764.105 672.823 760.083 671.849C756.184 670.995 752.893 669.107 750.212 666.182C747.531 663.135 746.19 658.87 746.19 653.386V531.093L771.782 525.426V653.386C771.782 656.432 772.453 658.687 773.793 660.149C775.134 661.49 776.779 662.343 778.729 662.709C780.679 662.952 782.629 662.891 784.578 662.526C786.528 662.038 788.052 661.551 789.148 661.063ZM820.913 671.666V646.074H847.601V671.666H820.913ZM773.568 699.086C778.93 700.548 783.378 701.096 786.912 700.731C790.324 700.365 793.005 699.329 794.955 697.623C796.905 695.917 798.246 693.724 798.977 691.043C799.708 688.483 800.074 685.68 800.074 682.634V615.181L825.665 609.514V682.634C825.665 689.093 824.264 694.333 821.461 698.354C818.78 702.498 815.246 705.484 810.859 707.312C806.472 709.262 801.841 710.176 796.966 710.054C792.213 709.932 787.765 708.896 783.622 706.946C779.356 705.118 776.005 702.498 773.568 699.086ZM840.254 671.666V646.074H915.019V671.666H840.254ZM876.448 669.655L836.415 626.514L851.953 605.127L895.277 652.289L876.448 669.655ZM870.233 662.526V604.213L895.825 598.546V662.526H870.233ZM907.733 671.666V646.074H922.357V531.093L947.948 525.426V667.461C947.948 668.924 947.339 669.96 946.12 670.569C944.902 671.178 943.683 671.544 942.464 671.666C941.246 671.666 940.637 671.666 940.637 671.666H907.733ZM999.975 661.063C999.244 663.744 997.294 666.121 994.125 668.193C991.079 670.142 987.423 671.483 983.157 672.214C979.014 672.945 974.931 672.823 970.91 671.849C967.01 670.995 963.72 669.107 961.039 666.182C958.358 663.135 957.017 658.87 957.017 653.386V531.093L982.609 525.426V653.386C982.609 656.432 983.279 658.687 984.62 660.149C985.96 661.49 987.606 662.343 989.555 662.709C991.505 662.952 993.455 662.891 995.405 662.526C997.355 662.038 998.878 661.551 999.975 661.063Z" fill="#11297E"/>
</svg>
