<svg width="100" height="100" viewBox="0 0 100 100" fill="none" xmlns="http://www.w3.org/2000/svg">
<g clip-path="url(#clip0_184_3)">
<path d="M9.99557 45C11.2701 45.0014 12.496 45.4894 13.4228 46.3642C14.3496 47.2391 14.9073 48.4348 14.982 49.707C15.0567 50.9792 14.6427 52.2319 13.8247 53.2092C13.0066 54.1864 11.8463 54.8145 10.5806 54.965L9.99557 55H4.99501C3.72047 54.9986 2.49458 54.5106 1.56779 53.6358C0.64101 52.7609 0.083295 51.5652 0.00860113 50.293C-0.0660927 49.0208 0.347872 47.7681 1.16591 46.7908C1.98396 45.8136 3.14433 45.1855 4.40995 45.035L4.99501 45H9.99557ZM50 0C51.2248 0.000161553 52.407 0.449781 53.3222 1.26358C54.2375 2.07737 54.8222 3.19874 54.9655 4.415L55.0006 5V10C54.9991 11.2744 54.5111 12.5002 53.6362 13.4268C52.7612 14.3535 51.5654 14.9112 50.2931 14.9859C49.0207 15.0605 47.7679 14.6466 46.7905 13.8287C45.8131 13.0107 45.185 11.8505 45.0345 10.585L44.9994 10V5C44.9994 3.67392 45.5263 2.40215 46.4641 1.46447C47.4019 0.526784 48.6738 0 50 0ZM95.005 45C96.2795 45.0014 97.5054 45.4894 98.4322 46.3642C99.359 47.2391 99.9167 48.4348 99.9914 49.707C100.066 50.9792 99.6521 52.2319 98.8341 53.2092C98.016 54.1864 96.8557 54.8145 95.5901 54.965L95.005 55H90.0044C88.7299 54.9986 87.504 54.5106 86.5772 53.6358C85.6504 52.7609 85.0927 51.5652 85.018 50.293C84.9433 49.0208 85.3573 47.7681 86.1753 46.7908C86.9934 45.8136 88.1537 45.1855 89.4194 45.035L90.0044 45H95.005ZM14.4611 14.465C15.3221 13.6041 16.4677 13.087 17.683 13.0106C18.8983 12.9341 20.0997 13.3037 21.0618 14.05L21.5318 14.465L25.0322 17.965C25.9291 18.8648 26.4498 20.0722 26.4885 21.3419C26.5273 22.6117 26.0813 23.8486 25.241 24.8014C24.4008 25.7542 23.2293 26.3515 21.9645 26.472C20.6998 26.5925 19.4366 26.2271 18.4315 25.45L17.9615 25.035L14.4611 21.535C13.5236 20.5974 12.997 19.3258 12.997 18C12.997 16.6742 13.5236 15.4026 14.4611 14.465ZM78.4682 14.465C79.368 13.5683 80.5756 13.0476 81.8454 13.0089C83.1153 12.9701 84.3524 13.4161 85.3053 14.2562C86.2582 15.0964 86.8556 16.2678 86.9761 17.5324C87.0966 18.797 86.7311 20.06 85.954 21.065L85.5389 21.535L82.0385 25.035C81.1387 25.9317 79.9311 26.4524 78.6613 26.4911C77.3914 26.5299 76.1543 26.0839 75.2014 25.2438C74.2485 24.4036 73.6511 23.2322 73.5306 21.9676C73.4101 20.703 73.7756 19.44 74.5527 18.435L74.9678 17.965L78.4682 14.465ZM60.0011 80C61.3273 80 62.5992 80.5268 63.537 81.4645C64.4748 82.4021 65.0017 83.6739 65.0017 85C65.0017 88.9782 63.4211 92.7936 60.6078 95.6066C57.7944 98.4196 53.9787 100 50 100C46.0213 100 42.2056 98.4196 39.3922 95.6066C36.5789 92.7936 34.9983 88.9782 34.9983 85C34.9985 83.7753 35.4482 82.5933 36.2621 81.6781C37.0759 80.763 38.1974 80.1783 39.4138 80.035L39.9989 80H60.0011ZM50 20C56.2972 20 62.4347 21.9811 67.5433 25.6627C72.6518 29.3443 76.4723 34.5398 78.4637 40.5132C80.455 46.4865 80.5162 52.935 78.6386 58.945C76.761 64.9551 73.0397 70.2221 68.002 74C67.3128 74.5176 66.5014 74.8483 65.6467 74.96L65.0017 75H34.9983C33.9164 75 32.8636 74.6491 31.998 74C26.9603 70.2221 23.239 64.9551 21.3614 58.945C19.4838 52.935 19.545 46.4865 21.5364 40.5132C23.5277 34.5398 27.3482 29.3443 32.4567 25.6627C37.5653 21.9811 43.7028 20 50 20Z" fill="#E6154F"/>
</g>
<defs>
<clipPath id="clip0_184_3">
<rect width="100" height="100" fill="white"/>
</clipPath>
</defs>
</svg>
